Coordinates
version=1
nRows=10
nColumns=38
inDegrees=no

Units are S.I. units (second, meters, Newtons, ...)
If the header above contains a line with 'inDegrees', this indicates whether rotational values are in degrees (yes) or radians (no).

endheader
time	pelvis_tilt	pelvis_list	pelvis_rotation	pelvis_tx	pelvis_ty	pelvis_tz	hip_flexion_r	hip_adduction_r	hip_rotation_r	knee_angle_r	ankle_angle_r	subtalar_angle_r	mtp_angle_r	hip_flexion_l	hip_adduction_l	hip_rotation_l	knee_angle_l	ankle_angle_l	subtalar_angle_l	mtp_angle_l	lumbar_extension	lumbar_bending	lumbar_rotation	arm_flex_r	arm_add_r	arm_rot_r	elbow_flex_r	pro_sup_r	wrist_flex_r	wrist_dev_r	arm_flex_l	arm_add_l	arm_rot_l	elbow_flex_l	pro_sup_l	wrist_flex_l	wrist_dev_l
0.133333	0.0611831	-0.0376455	0.0324983	0.898942	1.07941	-0.320667	0.295612	0.0949229	-0.194837	-0.19296	0.0380406	0.049271	8.54464e-05	-0.301174	-0.0325999	-0.0888443	-0.527432	-0.331758	0.0758117	8.74104e-05	-0.332816	0.0312561	-0.201981	-0.795241	-0.223069	-0.121557	1.77151	2.02574	-0.0106657	-0.019569	-0.234272	-0.293148	0.151381	2.28106	1.79587	-0.0111735	-0.00558791
0.141667	0.0675339	-0.0408645	0.0245388	0.899625	1.07557	-0.319895	0.293303	0.102143	-0.189461	-0.225775	0.0124467	0.049271	8.54464e-05	-0.291925	-0.0378374	-0.0988332	-0.588218	-0.319892	0.0758117	8.74104e-05	-0.341571	0.0342761	-0.188052	-0.789026	-0.229608	-0.125745	1.78064	2.02066	-0.0106657	-0.019569	-0.236635	-0.289775	0.153068	2.27862	1.79785	-0.0111735	-0.00558791
0.15	0.0745102	-0.0457454	0.0171007	0.899925	1.07123	-0.319078	0.292631	0.111034	-0.183192	-0.264594	-0.00237585	0.049271	8.54464e-05	-0.28102	-0.0459056	-0.108827	-0.651275	-0.30456	0.0758117	8.74104e-05	-0.351875	0.0388165	-0.173864	-0.77893	-0.237727	-0.128116	1.78822	2.01586	-0.0106657	-0.019569	-0.238185	-0.28589	0.154161	2.27307	1.80008	-0.0111735	-0.00558791
0.158333	0.082125	-0.0522445	0.0101893	0.899845	1.06651	-0.318239	0.293486	0.121552	-0.176065	-0.309205	-0.00651544	0.049271	8.54464e-05	-0.268494	-0.0567413	-0.118776	-0.716502	-0.285921	0.0758117	8.74104e-05	-0.363731	0.0448361	-0.159439	-0.764926	-0.247408	-0.128658	1.79421	2.01142	-0.0106657	-0.019569	-0.238917	-0.281503	0.154673	2.26436	1.80251	-0.0111735	-0.00558791
0.166667	0.0904422	-0.060218	0.00382595	0.899411	1.0616	-0.317399	0.295513	0.133533	-0.168219	-0.358953	-0.000335408	0.049271	8.54464e-05	-0.254473	-0.0701204	-0.128506	-0.783575	-0.264408	0.0758117	8.74104e-05	-0.377163	0.0521967	-0.144855	-0.74693	-0.258585	-0.127342	1.79842	2.00749	-0.0106657	-0.019569	-0.238826	-0.276636	0.154629	2.25235	1.80506	-0.0111735	-0.00558791
0.175	0.0996178	-0.069398	-0.00195237	0.898658	1.05672	-0.316583	0.298023	0.146636	-0.159949	-0.412573	0.0152982	0.049271	8.54464e-05	-0.239196	-0.0855928	-0.137676	-0.851874	-0.24075	0.0758117	8.74104e-05	-0.39219	0.0606315	-0.130274	-0.724815	-0.271126	-0.12412	1.80058	2.00436	-0.0106657	-0.019569	-0.237926	-0.271329	0.15406	2.23682	1.80763	-0.0111735	-0.00558791
0.183333	0.109775	-0.0793875	-0.00707808	0.89762	1.052	-0.315819	0.300009	0.160348	-0.151686	-0.468222	0.0389111	0.049271	8.54464e-05	-0.223	-0.102484	-0.145807	-0.920512	-0.215879	0.0758117	8.74104e-05	-0.408818	0.0697616	-0.11593	-0.698445	-0.284817	-0.118957	1.80028	2.00241	-0.0106657	-0.019569	-0.236264	-0.265633	0.152993	2.21749	1.8101	-0.0111735	-0.00558791
0.191667	0.120979	-0.0897147	-0.0114638	0.896332	1.04754	-0.31514	0.300342	0.174051	-0.143904	-0.523705	0.0685331	0.049271	8.54464e-05	-0.206213	-0.119976	-0.152352	-0.988427	-0.190773	0.0758117	8.74104e-05	-0.426949	0.0791465	-0.102104	-0.66774	-0.299357	-0.111856	1.79713	2.00201	-0.0106657	-0.019569	-0.23394	-0.259611	0.151451	2.19412	1.81245	-0.0111735	-0.00558791
0.2	0.133137	-0.0998939	-0.0150224	0.894836	1.04335	-0.314579	0.298009	0.187132	-0.137003	-0.576829	0.101979	0.049271	8.54464e-05	-0.189043	-0.137232	-0.156814	-1.05452	-0.166297	0.0758117	8.74104e-05	-0.446329	0.0883586	-0.089054	-0.632752	-0.314364	-0.1029	1.79083	2.00344	-0.0106657	-0.019569	-0.231099	-0.253341	0.149467	2.16659	1.81468	-0.0111735	-0.00558791
0.208333	0.146001	-0.109494	-0.0177086	0.893178	1.03948	-0.314156	0.292359	0.199099	-0.131214	-0.625731	0.137157	0.049271	8.54464e-05	-0.171488	-0.153535	-0.158839	-1.1178	-0.143101	0.0758117	8.74104e-05	-0.466495	0.0970434	-0.0769422	-0.593736	-0.329392	-0.0922741	1.7813	2.00672	-0.0106657	-0.019569	-0.227927	-0.246933	0.147118	2.13502	1.81683	-0.0111735	-0.00558791
